<svg xmlns="http://www.w3.org/2000/svg" xmlns:xlink="http://www.w3.org/1999/xlink" width="200" height="239" viewBox="0 0 200 239">
    <defs>
        <path id="5fn44u51ma" d="M200 100c0 55.23-44.772 100-100 100S0 155.23 0 100C0 44.773 44.772 0 100 0s100 44.772 100 100"/>
    </defs>
    <g fill="none" fill-rule="evenodd">
        <path fill="#FFC234" d="M37.406 205.694c.17 0 .325.1.394.254l6.828 15.111 6.828-15.111c.07-.155.223-.254.393-.254h4.16c.145 0 .282.074.361.196.08.123.092.278.033.41L41.73 238.746c-.049.106-.137.188-.245.228-.048.017-.1.026-.15.026-.063 0-.127-.014-.185-.043l-3.383-1.616c-.21-.1-.303-.35-.208-.562l4.538-10.087L32.9 206.3c-.061-.133-.05-.287.03-.41.08-.122.217-.196.362-.196zm86.52-.786c1.544 0 3.033.306 4.422.91 1.387.602 2.61 1.442 3.635 2.497 1.022 1.053 1.844 2.302 2.441 3.712.6 1.417.903 2.957.903 4.577 0 1.622-.304 3.162-.903 4.578-.597 1.41-1.419 2.66-2.44 3.713-1.026 1.054-2.249 1.895-3.636 2.497-1.389.603-2.878.909-4.423.909-1.576 0-3.064-.298-4.423-.887-1.045-.454-2.007-1.053-2.869-1.786v11.937c0 .238-.193.43-.43.43h-3.887c-.238 0-.432-.192-.432-.43v-31.44c0-.239.194-.431.432-.431h3.886c.238 0 .431.192.431.43v1.458c.863-.735 1.825-1.333 2.87-1.787 1.358-.588 2.846-.887 4.422-.887zm-53.795 0c2.134 0 4.118.488 5.897 1.45 1.774.961 3.232 2.27 4.333 3.892.065.097.09.215.065.329-.024.114-.094.213-.192.276l-3.199 2.008c-.2.125-.464.069-.593-.13-.659-1.012-1.546-1.831-2.636-2.434-1.089-.602-2.325-.906-3.675-.906-1.034 0-2.023.194-2.94.577-.923.386-1.724.9-2.383 1.53-.656.627-1.186 1.39-1.572 2.264-.385.872-.58 1.814-.58 2.796 0 .983.195 1.926.58 2.798.388.88.92 1.657 1.58 2.314.657.656 1.456 1.184 2.374 1.567.916.384 1.906.577 2.941.577 1.35 0 2.575-.31 3.647-.924 1.078-.618 1.96-1.434 2.621-2.42.13-.194.39-.25.587-.127l3.245 2.009c.1.06.17.16.194.275.025.113.001.232-.064.33-1.102 1.623-2.56 2.933-4.333 3.892-1.779.962-3.763 1.45-5.897 1.45-1.694 0-3.303-.313-4.783-.929-1.475-.613-2.78-1.458-3.88-2.51-1.1-1.05-1.987-2.301-2.63-3.713-.648-1.416-.976-2.96-.976-4.589 0-1.597.328-3.126.975-4.544.645-1.412 1.531-2.655 2.633-3.694 1.1-1.035 2.403-1.87 3.878-2.485 1.48-.617 3.09-.929 4.783-.929zm90.588 0c1.575 0 3.063.299 4.423.887 1.037.45 1.983 1.044 2.823 1.77v-1.44c0-.238.193-.432.43-.432h3.932c.239 0 .432.194.432.431v20.96c0 .239-.193.431-.432.431h-3.931c-.238 0-.431-.192-.431-.43v-1.441c-.84.727-1.785 1.32-2.823 1.77-1.36.589-2.848.887-4.423.887-1.577 0-3.074-.306-4.45-.91-1.37-.603-2.585-1.442-3.608-2.496-1.023-1.054-1.845-2.303-2.441-3.713-.6-1.415-.903-2.954-.903-4.577 0-1.593.304-3.119.903-4.534.595-1.41 1.418-2.659 2.44-3.713 1.024-1.052 2.237-1.899 3.607-2.516 1.376-.62 2.875-.934 4.452-.934zm-65.678 0c1.663 0 3.257.313 4.737.929 1.474.614 2.779 1.459 3.88 2.51 1.1 1.053 1.987 2.302 2.63 3.713.648 1.42.977 2.949.977 4.545 0 1.625-.33 3.169-.976 4.588-.644 1.411-1.53 2.661-2.631 3.713-1.101 1.052-2.408 1.89-3.884 2.49-1.478.6-3.071.905-4.733.905-1.694 0-3.302-.305-4.78-.905-1.476-.6-2.782-1.438-3.883-2.49-1.102-1.052-1.987-2.302-2.631-3.713-.647-1.418-.976-2.961-.976-4.588 0-1.598.329-3.128.976-4.545.644-1.41 1.529-2.66 2.63-3.714 1.1-1.05 2.406-1.895 3.88-2.509 1.48-.616 3.09-.93 4.784-.93zm95.249 0c1.727 0 3.19.254 4.353.757 1.16.5 2.115 1.135 2.837 1.886.72.75 1.265 1.574 1.619 2.451.345.853.583 1.637.71 2.332.063.327.11.622.14.877.034.273.05.512.05.73v13.144c0 .237-.193.43-.431.43h-3.885c-.24 0-.431-.193-.431-.43v-12.358c0-.44-.053-.99-.156-1.636-.097-.612-.317-1.208-.652-1.77-.327-.545-.831-1.024-1.497-1.422-.66-.394-1.57-.594-2.703-.594-1.39 0-2.501.198-3.308.59-.805.392-1.431.865-1.861 1.408-.433.547-.721 1.095-.857 1.63-.144.562-.232 1.01-.261 1.332v12.82c0 .237-.194.43-.432.43h-3.885c-.238 0-.431-.193-.431-.43v-20.96c0-.239.193-.431.43-.431h3.886c.238 0 .432.192.432.43v.902c.29-.245.658-.492 1.114-.751.585-.333 1.318-.646 2.18-.93.88-.29 1.9-.437 3.039-.437zm-168.943 0c1.582-.118 3.029.1 4.302.647.55.248 1.09.563 1.613.942.543.393 1.025.908 1.434 1.532.401.614.733 1.357.989 2.209.254.852.383 1.863.383 3.004v13.843c0 .238-.192.43-.432.43h-3.884c-.239 0-.432-.192-.432-.43v-13.93c0-.943-.137-1.675-.406-2.178-.266-.494-.589-.857-.96-1.077-.386-.23-.813-.371-1.268-.423-.502-.056-.947-.085-1.322-.085-1.113 0-2.032.361-2.809 1.104-.772.736-1.147 1.607-1.147 2.66v13.929c0 .238-.193.43-.432.43h-3.884c-.239 0-.432-.192-.432-.43v-13.93c0-.943-.137-1.675-.406-2.178-.266-.494-.589-.857-.96-1.077-.386-.23-.813-.371-1.268-.423-.502-.056-.947-.085-1.322-.085-1.112 0-2.023.361-2.783 1.1-.759.738-1.127 1.609-1.127 2.664v13.929c0 .238-.194.43-.432.43H.431c-.238 0-.431-.192-.431-.43v-20.917c0-.237.193-.43.431-.43h3.931c.238 0 .432.193.432.43v.5c.262-.243.558-.472.885-.685.314-.21.645-.402.98-.57.348-.174.708-.296 1.073-.361.303-.094.625-.142.957-.144.909-.058 1.801-.013 2.65.139.744.154 1.53.43 2.35.82.835.399 1.581 1.042 2.221 1.91.233-.281.492-.552.773-.811.448-.412.935-.77 1.45-1.063.51-.288 1.043-.527 1.584-.71.554-.186 1.103-.283 1.63-.285zM144.721 196c.238 0 .432.191.432.43v30.655c0 .237-.194.43-.432.43h-3.885c-.238 0-.43-.193-.43-.43V196.43c0-.239.192-.43.43-.43zm16.317 13.392c-.938 0-1.84.193-2.678.572-.845.385-1.593.906-2.223 1.548-.63.643-1.14 1.413-1.511 2.29-.372.875-.561 1.817-.561 2.803s.189 1.928.56 2.801c.373.878.882 1.648 1.512 2.291.63.644 1.378 1.164 2.223 1.547.837.38 1.739.573 2.678.573.939 0 1.84-.193 2.678-.573.845-.383 1.593-.903 2.223-1.547.628-.64 1.128-1.41 1.487-2.285.358-.876.539-1.82.539-2.807 0-.987-.181-1.932-.54-2.809-.358-.875-.858-1.642-1.486-2.284-.63-.642-1.378-1.163-2.223-1.548-.84-.379-1.74-.572-2.678-.572zm-37.432 0c-.94 0-1.845.187-2.684.554-.842.368-1.587.886-2.214 1.54-.632.659-1.142 1.437-1.515 2.317-.372.873-.56 1.816-.56 2.801 0 .987.188 1.93.56 2.802.373.88.882 1.658 1.514 2.316.628.654 1.373 1.173 2.215 1.541.84.367 1.743.554 2.684.554.94 0 1.843-.187 2.683-.554.841-.368 1.588-.887 2.214-1.54.63-.657 1.131-1.434 1.49-2.31.358-.877.54-1.821.54-2.809 0-.986-.182-1.93-.54-2.807-.359-.878-.86-1.654-1.49-2.31-.626-.655-1.373-1.173-2.214-1.541-.84-.367-1.743-.554-2.683-.554zm-28.565 0c-1.037 0-2.027.188-2.946.558-.917.37-1.714.889-2.37 1.544-.66.657-1.191 1.434-1.58 2.314-.384.873-.58 1.814-.58 2.797 0 .983.196 1.924.58 2.796.388.877.918 1.65 1.576 2.29.657.641 1.456 1.154 2.374 1.523.919.371 1.909.559 2.946.559 1.035 0 2.018-.187 2.92-.558.906-.37 1.706-.884 2.38-1.528.672-.642 1.209-1.412 1.595-2.286.384-.872.58-1.813.58-2.796 0-.983-.196-1.924-.58-2.797-.387-.876-.925-1.653-1.598-2.311-.674-.657-1.473-1.178-2.376-1.548-.903-.369-1.886-.557-2.921-.557z"/>
        <mask id="h0k8mcj0db" fill="#fff">
            <use xlink:href="#5fn44u51ma"/>
        </mask>
        <use fill="#FFC234" xlink:href="#5fn44u51ma"/>
        <path fill="#935326" d="M57.69 134.057c-1.911-1.914-3.027-6.698-4.94-5.422-1.913 1.276-1.593 2.552-2.87 3.828-.9.902-2.684.689-5.736 3.348-.234.205-.459 1.852-.16 3.509.215 1.188-3.638.31-4.78 1.276-2.159 1.82-2.464 5.249-2.392 6.697.067 1.334-11.473 5.183-10.836 5.9.489.552 1.593 2.419 2.232 1.914.37-.294 5.98-3.71 6.214-3.348.297.459-5.095 2.946-6.375 3.986-.5.407 3.532 5.31 4.781 5.104 3.741-.618 8.255-9.688 8.606-9.57 1.599.539 5.829-.167 7.49-1.912 1.09-1.143.544-3.59.956-4.147 1.755-2.375 3.342-.591 5.738-1.435 2.301-.811.538-3.46 1.755-4.306 2.471-1.72 6.214-3.408 6.214-4.306 0-2.073-3.985.798-5.897-1.116M162.716 145.22c.073-1.448-.233-4.877-2.391-6.698-1.142-.965-4.995-.088-4.78-1.276.299-1.656.075-3.303-.16-3.508-3.052-2.66-4.835-2.447-5.737-3.35-1.275-1.274-.956-2.55-2.87-3.826-1.912-1.276-3.027 3.509-4.94 5.422-1.912 1.914-5.896-.957-5.896 1.116 0 .898 3.743 2.587 6.215 4.306 1.216.845-.547 3.495 1.753 4.306 2.396.844 3.985-.941 5.738 1.435.412.558-.132 3.004.956 4.146 1.663 1.746 5.893 2.452 7.49 1.914.353-.12 4.865 8.95 8.606 9.568 1.25.206 5.283-4.696 4.782-5.103-1.28-1.04-6.672-3.528-6.375-3.987.234-.361 5.844 3.055 6.215 3.349.639.506 1.743-1.362 2.232-1.913.637-.717-10.904-4.568-10.838-5.901" mask="url(#h0k8mcj0db)"/>
        <path fill="#1E1601" d="M83.03 189.393l2.58 9.542c4.293.618 8.675.964 13.127 1.02l.071-3.545-15.778-7.017zM103.111 196.41l.072 3.499c4.631-.145 9.183-.605 13.634-1.36l2.55-9.156-16.256 7.017z" mask="url(#h0k8mcj0db)"/>
        <path fill="#FBAD18" d="M120.961 180.94c.781-1.48.564-2.192-.159-2.71-.312-.223-9.496 1.607-13.865 1.754-11.275.38-25.398-3.82-25.978-1.275-.241 1.056.456 2.677 0 4.305-.966 3.442.682 8.489 1.274 9.887 1.146 2.7 3.338 4.989 7.133 6.502 3.488.368 7.029.559 10.615.559 3.539 0 7.034-.185 10.478-.544 3.448-1.563 6.748-3.9 9.067-6.357.433-.46 3.134-3.677 1.753-8.293-.431-1.444-.928-2.671-.318-3.827" mask="url(#h0k8mcj0db)"/>
        <path fill="#DB9815" d="M84.624 182.057c.797-.479 9.244-.159 9.244-.159s-4.689-.414-7.809-.798c-2.692-.33-3.849-.638-4.144-.638-.149 0 .485.632.478 1.436-.024 2.628-.16 8.133-.16 8.133s.504-7.674 1.117-6.858c.956 1.277 2.92 3.308 2.39 2.711-2.922-3.296-1.913-3.348-1.116-3.827" mask="url(#h0k8mcj0db)"/>
        <path fill="#E69F18" d="M119.509 181.1c-.264 0-1.296.271-3.695.563-2.783.34-6.965.706-6.965.706s7.533-.283 8.244.14c.486.29-1.696 9.013-14.62 12.625-3.315.926-8.501.12-10.198.32-1.378.16-6.128-1.249-1.435.956 3.047 1.43 10.868 2.905 12.749 2.391 13.67-3.724 14.157-14.668 14.64-15.305.155-.205.36 5.043-.774 7.492-.54 1.165.565-.324 1.116-1.754.162-.42.956-2.87.956-2.87s-.423-1.674-.445-3.995c-.006-.71.56-1.269.427-1.269" mask="url(#h0k8mcj0db)"/>
        <path fill="#C4C8D5" d="M135.666 149.273c-.11-.583-2.855 1.013-6.089 2.298-1.536.61-3.302 1.57-4.825 1.608-4.062.103-8.077-1.905-8.277-2.506-.557-1.673-1.024-2.6-1.024-2.6s-24.92-.489-28.179 1.304c-.244.135-.488.42-.73.831-.755 1.281-9.484 6.352-10.73 9.405-.87 2.129 7.61 2.225 7.206 4.781-1.228 7.762-1.948 15.695-1.609 16.12.652.814 39.091.326 39.091.326s-.687-9.969-1.837-18.815c-.11-.856 6.754.531 12.752-1.494 5.424-1.829 11.15-5.13 11.03-5.858-.115-.689-6.658-4.77-6.779-5.4" mask="url(#h0k8mcj0db)"/>
        <path fill="#F2F5FE" d="M117.455 155.266c-.827-4.315-2.39-6.857-2.39-6.857s-24.384-.478-27.572 1.276c-3.187 1.754-6.375 29.661-5.737 30.46.636.796 38.25.317 38.25.317s-.806-16.086-2.55-25.196" mask="url(#h0k8mcj0db)"/>
        <path fill="#EFC09B" d="M96.418 151.917c2.55 2.87 4.144 4.785 4.144 4.785s3.187-3.668 4.781-5.263c1.244-1.245-11.25-2.138-8.925.478" mask="url(#h0k8mcj0db)"/>
        <path fill="#FFC63E" d="M104.546 152.077c-3.028 3.189-10.694 9.633-14.025 12.12-.921.688 5.908 15.98 5.1 13.555-2.231-6.697-3.984-12.917-2.869-13.874.531-.455 5.055-4.222 8.128-7.335 3.384-3.428 5.253-6.137 3.666-4.466" mask="url(#h0k8mcj0db)"/>
        <path fill="#FFC63E" d="M111.877 152.396c-.5 1.563-1.64 3.072-2.55 3.508-1.221.585-6.375.904-7.809.478-1.094-.324 1.169.638 2.869.798.52.049 5.36-.128 6.215-1.276 1.859-2.498 1.665-4.729 1.275-3.508M99.445 156.223c-1.434.425-6.587.106-7.809-.479-.91-.435-2.05-1.944-2.549-3.507-.39-1.22-.585 1.01 1.274 3.507.855 1.15 5.694 1.326 6.216 1.276 1.7-.159 3.962-1.12 2.868-.797M96.606 171.676c-.508 0-.92.412-.92.92 0 .507.411.92.92.92.507 0 .919-.413.919-.92 0-.508-.413-.92-.92-.92M104.762 171.447c-.507 0-.92.41-.92.919 0 .508.413.92.92.92.508 0 .919-.412.919-.92s-.411-.92-.92-.92" mask="url(#h0k8mcj0db)"/>
        <path fill="#F2F5FE" d="M85.74 151.12c-3.348 2.233-11.953 9.568-12.75 11.323-.797 1.754 10.2 3.827 10.04 4.624-.159.798 3.984-5.262 3.984-5.262s2.073-12.917-1.274-10.684" mask="url(#h0k8mcj0db)"/>
        <path fill="#FBAD18" d="M82.8 164.314c-.186-1.698-3.368-4.342-5.24-5.097-1.871-.755-4.305 0-5.428 2.454-1.123 2.455-2.808 5.287-2.808 7.741 0 2.454 4.493 4.53 9.172 4.341 4.679-.189 4.492-7.74 4.305-9.439" mask="url(#h0k8mcj0db)"/>
        <path fill="#F2F5FE" d="M130.524 151.598c-.133-.105-4.23 2.067-6.376 1.914-4.314-.308-8.285-2.924-9.084-2.71-1.194.318 1.993 10.764 2.55 10.843.35.05 7.542-.398 12.43-1.116 2.893-.425 4.623-1.276 4.623-1.276s-3.745-7.336-4.143-7.655" mask="url(#h0k8mcj0db)"/>
        <path fill="#FEE4CD" d="M82.553 167.545s-1.913-.479-2.072-2.073c-.16-1.595-5.26-2.87-6.216-2.87-.956 0-2.868 6.06-2.868 6.857 0 .797 1.115 4.624 1.434 6.06.319 1.435 3.028 1.914 6.534 2.391 3.506.48 5.1-6.059 5.259-8.45.159-2.394-2.071-1.915-2.071-1.915M156.413 143.718c-.78-3.322-3.76-3.872-7.19-2.214-1.674.81-3.566 2.253-3.157 3.386.21.579-8.422 3.029-8.834 3.852-.288.576 2.011 5.38 5.017 5.172 3.31-.231 5.96-3.923 6.5-3.627 1.873 1.028 4.12.288 4.985-.225 2.973-1.76 3.416-3.205 2.68-6.344" mask="url(#h0k8mcj0db)"/>
        <path fill="#F2F5FE" d="M136.63 148.953c-.728.086-7.604 2.047-10.492 6.207-2.245 3.236 4.568 5.58 7.874 4.17 2.027-.864 6.755-3.377 8.703-4.566 1.948-1.19-5.355-5.897-6.084-5.811" mask="url(#h0k8mcj0db)"/>
        <path fill="#FBAD18" d="M146.807 151.98c-.114-.14-.94.63-1.354.474-.946-.357-2.31-.957-3.301-1.717-.808-.619-1.788-1.823-1.602-2.649.148-.656.528-1.035 1.24-1.279.118-.04-.462-.503-1.014-.49-.558.014-1.27.442-1.354.474-1.382.52-5.226 1.896-4.483 3.597 1.016 2.327 3.543 3.96 5.46 4.509 1.917.548 3.269 1.015 5.82-1.7.19-.2.657-1.135.588-1.219" mask="url(#h0k8mcj0db)"/>
        <path fill="#B0B0B0" d="M168.773 114.123c-.364-.802-7.89-2.472-8.767-2.392-.875.08-3.377 8.701-3.028 10.047.298 1.147 2.153 2.392 2.072 2.711-.074.298-5.026 11.89-5.929 13.133.572-.056 2.583.262 2.583.262s4.621-11.56 5.1-12.439c.422-.773 4.087-.919 4.621-1.275 1.435-.957 3.745-9.17 3.347-10.047" mask="url(#h0k8mcj0db)"/>
        <path fill="#F93C3C" d="M156.182 137.406c-.478-.32-1.992-.558-3.027-.48-1.036.08-3.11 5.822-2.71 6.062.398.239 3.905 1.594 4.78.637.878-.956 1.436-5.9.957-6.22" mask="url(#h0k8mcj0db)"/>
        <path fill="#C4C8D5" d="M101.775 153.638c-6.566-.044-16.199-2.298-16.199-2.298s15.445 4.364 16.545 4.366c10.74.015 13.555-4.25 13.555-4.25s-6.916 2.23-13.9 2.182M118.663 159.613c-.3.749-2.872-6.894-2.872-6.894l2.643 8.733s.298-.558.803-1.954c.676-1.866 1.61-4.71 1.61-4.71s-1.495 3.1-2.184 4.825M83.278 160.762c-.246.56-.804 2.412-.804 2.412l.46.805s.074-1.113.344-1.953c.808-2.52 2.527-7.009 2.527-7.009l-2.527 5.745" mask="url(#h0k8mcj0db)"/>
        <path fill="#FFC63E" d="M94.767 164.093c-.507 0-.92.412-.92.92 0 .507.413.92.92.92.508 0 .919-.413.919-.92 0-.508-.411-.92-.92-.92M105.911 163.864c-.508 0-.919.412-.919.919 0 .508.411.92.92.92.506 0 .918-.412.918-.92 0-.507-.412-.92-.919-.92" mask="url(#h0k8mcj0db)"/>
        <path fill="#260202" d="M82.871 168.343c-.398-.319-3.586-.877-4.144-.957-.557-.08-1.833.558-2.549 1.436-.718.876-.16 1.753-.16 1.753s6.614-.239 7.012-.478c.4-.239.24-1.436-.159-1.754" mask="url(#h0k8mcj0db)"/>
        <path fill="#F93C3C" d="M73.64 169.392s-.268 4.63 1.837 5.546c2.785 1.212 8.366 1.087 16.732 1.027 12.099-.086 21.836-.809 24.283-1.027 3.468-.308 3.672-5.957 3.672-5.957l-46.523.411z" mask="url(#h0k8mcj0db)"/>
        <path fill="#D57732" d="M113.63 163.718c-1.912-2.87-6.375-3.349-7.81-1.595-1.433 1.754 9.722 4.465 7.81 1.595M94.125 163.153c-1.667-1.283-4.339-.684-4.823.61-.486 1.295 6.49.673 4.823-.61" mask="url(#h0k8mcj0db)"/>
        <path fill="#FF6139" d="M99.924 156.382c-.48-.877-2.151-.398-2.55.16-.398.558-.32 1.195.319 1.595.637.398 1.514.16 2.23 0 .719-.16.48-.877 0-1.755M102.444 164.568c-.704-1.252-3.168-.57-3.755.228-.587.796-.47 1.708.47 2.277.938.569 2.228.227 3.285 0 1.056-.228.704-1.252 0-2.505M87.276 164.287c-.399-.741-1.797-.337-2.13.135-.332.47-.266 1.01.267 1.346.532.337 1.264.135 1.863 0 .6-.134.4-.74 0-1.481" mask="url(#h0k8mcj0db)"/>
        <path fill="#899618" d="M91.42 159.002c-.448-.357-3.773.351-3.871 1.026-.098.676-.181 1.13.152.85.334-.279 3.369-.77 4.016-.832.646-.063.15-.686-.297-1.044M103.156 160.766c-.208-.283-2.288-.394-2.453-.009-.165.384-.287.64-.045.528.241-.113 2.116.08 2.508.146.392.066.198-.382-.01-.665M107.778 165.71c-.208-.282-2.288-.394-2.454-.01-.165.385-.286.64-.044.529.241-.114 2.115.08 2.508.145.392.066.198-.381-.01-.663" mask="url(#h0k8mcj0db)"/>
        <path fill="#DFDCE3" d="M168.815 61.638c-1.078-2.78-4.066-7.626-7.245-9.418-2.87-1.617-4.327-1.311-4.58-1.416-.52-.217 4.763-19.365-9.328-28.004-24.503-15.02-27.538-.676-37.394-2.166-12.157-1.84-21.258-9.408-44.472.416-10.722 4.538-7.866 16-7.912 16.419-.069.622-19.005 2.873-27.483 28.086-2.773 8.247 2.237 16.695 9.162 22.919.834.749-7.544 3.675-1.916 15.085 4.098 8.306 14.416 6.45 14.74 6.417.15-.015 1.026-.055 2.498-.117 1.58-.067 1.299 6.32 4.089 6.21 19.682-.783 66.66-2.32 82.159-4.76 3.067-.483 5.438-5.556 5.53-5.667.317-.381 5.382.346 10.66-1.916 6.59-2.825 13.052-9.558 5.745-20.253-.843-1.234 5.305-2.585 7.412-8.084 1.356-3.532-.638-11.105-1.665-13.751" mask="url(#h0k8mcj0db)"/>
        <path fill="#F2F5FE" d="M167.802 61.691c-1.061-2.734-4-7.5-7.125-9.263-2.822-1.59-4.257-1.29-4.505-1.394-.51-.212 4.687-19.047-9.173-27.544-24.097-14.773-27.082-.665-36.774-2.13-11.956-1.809-20.905-9.253-43.736.41-10.543 4.462-7.734 15.736-7.78 16.148-.068.613-18.691 2.826-27.027 27.626-2.727 8.111 2.198 16.422 9.009 22.543.82.737-7.418 3.615-1.884 14.838 4.029 8.17 14.178 6.344 14.497 6.312 1.638-.164 92.04-3.456 92.713-4.263.312-.375 5.294.34 10.483-1.885 6.48-2.778 12.836-9.4 5.65-19.92-.828-1.214 5.217-2.543 7.29-7.952 1.332-3.474-.628-10.923-1.638-13.526" mask="url(#h0k8mcj0db)"/>
        <path fill="#DFDCE3" d="M157.892 83.825c-3.752-2.154-6.426-5.22-6.634-7.378-.2-2.08 1.894-5.614 1.393-6.804-.444-1.053-4.81-1.622-7.126-2.54-.348-.139-3.966-1.039-6.143-5.82-.842-1.853 1.602-5.49-.491-5.74-3.9-.464-7.045-1.812-9.255-3.115-1.766-1.04-2.188-12.408-4.177-10.493-15.005 14.45-19.022 7.25-24.243 4.263-3.821-2.186-1.321-11.523-4.177-11.312-.984.072-2.387 11.88-3.194 12.214-2.01.83-1.69-6.618-2.375-3.279-2.197 10.7-16.132 11.832-19.984 10.984-3.33-.732-5.597-3.87-7.617-4.18-2.104-.324.497 10.565-2.047 9.92-.546-.14-.588 6.425-5.57 8.197-3.16 1.123-.6 5.756-3.03 8.935-1.274 1.665-4.293.002-5.405 1.885-1.358 2.297 1.269 8.724-1.803 9.755-2.496.84 3.142 6.167 1.966 7.952-3.427 5.201-8.2 1.568-9.091 1.148-.706-.333.719 9.03 11.303 9.427 31.132 1.168 100.13-3.119 101.23-3.853.135-.09 1.792.248 1.802-.984.026-3.259-1.683-10.61-.082-14.182 1.466-3.27 7.802-3.248 4.75-5" mask="url(#h0k8mcj0db)"/>
        <path fill="#C97536" d="M139.802 133.417c-.574-.23-72.147 4.367-72.952 4.251-.49-.07 1.675 6.745 10.569 11.26 6.263 3.178 22.828 4.826 23.322 4.826.663 0 11.925-.022 21.944-4.94 10.38-5.099 17.39-15.287 17.117-15.397" mask="url(#h0k8mcj0db)"/>
        <path fill="#FEE4CD" d="M149.865 108.09c-1.824-1.48-4.284.534-3.93-1.721 3.718-23.762-13.844-41.986-23.179-47.3-13.938-7.936-46.679-.776-53.728 6.967-4.943 5.43-17.45 20.655-11.958 45.66.597 2.714-3.623 2.586-5.568 5.493-1.957 2.925-1.639 8.884-.82 11.067.764 2.037 2.927 7.17 6.307 8.443 3.532 1.33 8.98.036 9.664 1.312 4.706 8.766 11.917 13.917 35.873 14.838 18.017.692 34.014-12.541 36.938-19.1.584-1.31 4.912-.584 8.272-3.362 2.801-2.315 4.713-8.033 5.241-10.328.574-2.491.921-8.698-3.112-11.97" mask="url(#h0k8mcj0db)"/>
        <path fill="#935326" d="M145.361 103.09c.952-1.459-11.025-22.488-28.338-31.07-8.876-4.399-27.464-1.025-29.157.574-2.009 1.897-2.823 21.304 5.57 27.38.817.592 6.35 4.806 10.32 6.312 6.686 2.538 17.613 2.382 14.003.656-1.047-.5-4.793-3.987-8.27-7.05-3.547-3.12-5.184-6.313-5.734-7.542-2.136-4.768 2.746 3.5 5.814 6.23 4.816 4.285 9.754 7.507 14.906 8.69 4.32.991 6.882-2.044 8.928-2.132.495-.02-9.7-4.966-12.858-6.967-7.177-4.55-11.345-7.899-10.34-7.336 12.684 7.111 26.151 13.728 26.802 13.73.282.001 4.398 2.518 4.668 8.115.317 6.568-2.24 15.404-1.72 14.592 2.712-4.235 3.795-7.692 5.078-14.838.956-5.324.024-8.88.328-9.345" mask="url(#h0k8mcj0db)"/>
        <path fill="#935326" d="M64.278 86.612c-6.464 8.868-8.407 25.03-7.617 26.068.091.12.403 5.864 2.375 11.15 1.63 4.364 4.931 8.424 5.406 8.688.533.298-3.023-5.907-4.014-10.984-.852-4.374-1.123-7.353 1.162-8.739 3.76-2.28 10.58-2.622 14.646-6.59 3.855-3.764 5.925-17.196 6.716-19.757.256-.829.725 4.144-.737 10.001-1.3 5.203-4.587 11.366-3.932 10.821 7.1-5.899 7.64-22.853 7.862-33.2.102-4.683-14.57 2.533-21.867 12.542" mask="url(#h0k8mcj0db)"/>
        <path fill="#F2F4FE" d="M133.813 66.2c-10.093-12.05-30.504-11.23-31.86-11.23-1.36 0-21.607-2.017-38.247 15.821-14.19 15.21-8.54 40.897-6.798 41.398 1.883.541 4.555-15.029 13.759-25.74 8-9.313 20.378-14.538 30.467-15.084 10.952-.593 24.729 7.46 32.925 16.723 8.044 9.091 10.608 19.388 10.81 19.51.82.492 1.31-3.443 1.803-5.247.164-.604.28-21.218-12.86-36.15" mask="url(#h0k8mcj0db)"/>
        <path fill="#FE5933" d="M112.036 125.765c-3.188-1.754-8.287 1.754-11.475 1.754-3.187 0-7.17-1.914-10.04-.638-2.869 1.276 4.99 9.753 10.518 9.568 4.781-.16 14.185-8.93 10.997-10.684" mask="url(#h0k8mcj0db)"/>
        <path fill="#F8A78C" d="M80.903 123.118c-2.565-.872-10.847-.161-11.875 2.432-1.029 2.592.175 3.042 1.3 3.988 1.123.947 9.484-.262 11.766-1.121 2.282-.86 1.591-4.353-1.19-5.3M132.732 124.114c-1.029-2.592-9.31-3.304-11.876-2.432-2.781.946-3.472 4.44-1.19 5.3 2.282.858 10.643 2.068 11.767 1.12 1.124-.946 2.328-1.395 1.3-3.988" mask="url(#h0k8mcj0db)"/>
        <path fill="#935326" d="M85.9 102.003c-2.909-1.11-4.88-.894-6.535-.319-4.981 1.731-7.489 4.44-8.127 5.262-.538.693 3.08-2.733 8.605-3.508 2.63-.369 8.514-.496 6.056-1.435M127.814 106.31c-.64-.824-3.146-3.533-8.128-5.264-1.653-.574-3.626-.79-6.534.32-2.458.938 3.427 1.066 6.057 1.435 5.524.775 9.143 4.2 8.605 3.508" mask="url(#h0k8mcj0db)"/>
        <path fill="#1E1601" d="M86.537 117.791c-.5-2.885-1.262-4.923-2.183-6.258l.577-4.133-1.57 3.009c-.565-.484-1.168-.768-1.792-.874l-1.134-3.729-.177 3.753c-.826.16-1.667.583-2.488 1.216l-2.23-2.712 1.28 3.551c-1.816 1.802-3.449 4.592-4.468 7.772-.633 1.979 5.672-6.208 7.81-6.22 2.513-.014 6.727 6.658 6.375 4.625M127.814 118.27c-1.164-3.637-3.132-6.765-5.26-8.485l.467-3.342-1.401 2.684c-.672-.402-1.351-.654-2.016-.73l-1.078-3.548-.172 3.62c-.815.201-1.591.717-2.285 1.601l-2.44-2.964 1.57 4.353c-.647 1.283-1.185 3-1.57 5.216-.35 2.033 3.863-4.639 6.376-4.625 2.137.012 8.444 8.2 7.809 6.22" mask="url(#h0k8mcj0db)"/>
    </g>
</svg>
